<svg xmlns="http://www.w3.org/2000/svg" width="1em" height="1em" viewBox="0 0 512 512">
	<path d="M0 0h512v512H0z" fill="none" />
	<linearGradient id="SVGn14hOenm" x1="382.75" x2="79.21" y1="371.37" y2="80.987" gradientTransform="matrix(1 0 0 -1 0 514)" gradientUnits="userSpaceOnUse">
		<stop offset=".058" stop-color="#ff7f48" />
		<stop offset="1" stop-color="#e5495b" />
	</linearGradient>
	<circle cx="264.2" cy="256" r="247.7" fill="url(#SVGn14hOenm)" />
	<radialGradient id="SVGbAG36b7W" cx="-714.549" cy="813.211" r="13.213" gradientTransform="rotate(135 -23971.64 -20041.308)scale(37.6452 -63.3622)" gradientUnits="userSpaceOnUse">
		<stop offset=".151" stop-color="#aa1d2d" />
		<stop offset=".381" stop-color="#d12b18" stop-opacity=".44" />
		<stop offset=".602" stop-color="#ff3c00" stop-opacity="0" />
	</radialGradient>
	<circle cx="264.2" cy="256" r="247.7" fill="url(#SVGbAG36b7W)" />
	<radialGradient id="SVGpVeQoCIG" cx="-695.318" cy="783.003" r="13.213" gradientTransform="rotate(154.717 17997.165 22748.851)scale(-35.686 64.6502)" gradientUnits="userSpaceOnUse">
		<stop offset=".407" stop-color="#ff66fb" />
		<stop offset="1" stop-color="#ea3d01" stop-opacity="0" />
	</radialGradient>
	<circle cx="264.2" cy="256" r="247.7" fill="url(#SVGpVeQoCIG)" fill-opacity=".5" />
	<linearGradient id="SVGZmOxvbFJ" x1="262.663" x2="529.302" y1="268.307" y2="465.932" gradientTransform="matrix(1 0 0 -1 0 514)" gradientUnits="userSpaceOnUse">
		<stop offset=".311" stop-color="#ff6e30" />
		<stop offset=".635" stop-color="#ffa05c" />
	</linearGradient>
	<path fill="url(#SVGZmOxvbFJ)" d="M264.3 8.3C401.1 8.3 512 119.2 512 256c0 45.5-12.3 88.2-33.7 124.8l4-8.9c24.5-54.4-15.3-116-75-116l-98.6.1c-24.5 0-44.4-19.9-44.4-44.4v-98.8c0-59.7-61.7-99.5-116.1-74.9l-7.9 3.6c36.4-21.1 78.8-33.2 124-33.2" />
	<radialGradient id="SVGsh4e0c8W" cx="-661.876" cy="782.058" r="13.213" gradientTransform="rotate(191.835 7211.206 9998.676)scale(-24.239 23.1082)" gradientUnits="userSpaceOnUse">
		<stop offset=".786" stop-color="#ffa05c" stop-opacity="0" />
		<stop offset=".905" stop-color="#ffce84" />
	</radialGradient>
	<path fill="url(#SVGsh4e0c8W)" d="M264.3 8.3C401.1 8.3 512 119.2 512 256c0 45.5-12.3 88.2-33.7 124.8l4-8.9c24.5-54.4-15.3-116-75-116l-98.6.1c-24.5 0-44.4-19.9-44.4-44.4v-98.8c0-59.7-61.7-99.5-116.1-74.9l-7.9 3.6c36.4-21.1 78.8-33.2 124-33.2" />
	<radialGradient id="SVGql9F8bOu" cx="-681.922" cy="756.459" r="13.213" gradientTransform="rotate(146.802 11083.015 6532.107)scale(-24.4756 23.4062)" gradientUnits="userSpaceOnUse">
		<stop offset=".295" stop-color="#ff99e9" />
		<stop offset=".728" stop-color="#ff99e9" stop-opacity="0" />
	</radialGradient>
	<path fill="url(#SVGql9F8bOu)" fill-opacity=".8" d="M264.3 8.3C401.1 8.3 512 119.2 512 256c0 45.5-12.3 88.2-33.7 124.8l4-8.9c24.5-54.4-15.3-116-75-116l-98.6.1c-24.5 0-44.4-19.9-44.4-44.4v-98.8c0-59.7-61.7-99.5-116.1-74.9l-7.9 3.6c36.4-21.1 78.8-33.2 124-33.2" />
	<radialGradient id="SVGT8xfhx0N" cx="-695.629" cy="752.852" r="13.213" gradientTransform="rotate(131.136 13185.93 5039.814)scale(-26.059 23.7991)" gradientUnits="userSpaceOnUse">
		<stop offset="0" stop-color="#fd6ef9" />
		<stop offset=".637" stop-color="#f94" />
		<stop offset=".852" stop-color="#fcc479" />
	</radialGradient>
	<path fill="url(#SVGT8xfhx0N)" d="M264.3 8.3C401.1 8.3 512 119.2 512 256c0 45.5-12.3 88.2-33.7 124.8l4-8.9c24.5-54.4-15.3-116-75-116l-98.6.1c-24.5 0-44.4-19.9-44.4-44.4v-98.8c0-59.7-61.7-99.5-116.1-74.9l-7.9 3.6c36.4-21.1 78.8-33.2 124-33.2" />
	<radialGradient id="SVGDCC2pcUT" cx="-689.282" cy="828.139" r="13.213" gradientTransform="rotate(98.395 -15196.45 -8353.015)scale(13.2634 -29.9755)" gradientUnits="userSpaceOnUse">
		<stop offset=".144" stop-color="#ff8d13" />
		<stop offset=".537" stop-color="#ff7f29" stop-opacity="0" />
	</radialGradient>
	<path fill="url(#SVGDCC2pcUT)" d="M264.3 8.3C401.1 8.3 512 119.2 512 256c0 45.5-12.3 88.2-33.7 124.8l4-8.9c24.5-54.4-15.3-116-75-116l-98.6.1c-24.5 0-44.4-19.9-44.4-44.4v-98.8c0-59.7-61.7-99.5-116.1-74.9l-7.9 3.6c36.4-21.1 78.8-33.2 124-33.2" />
	<radialGradient id="SVGijJA9cDR" cx="-665.445" cy="803.132" r="13.213" gradientTransform="matrix(16 16 16 -16 -2203 23739.98)" gradientUnits="userSpaceOnUse">
		<stop offset="0" stop-color="#f8193e" />
		<stop offset=".939" stop-color="#920616" />
	</radialGradient>
	<path fill="url(#SVGijJA9cDR)" d="M42.9 242.8h125.5c23.7 0 42.9 19.2 42.9 42.9v125.5c0 23.7-19.2 42.9-42.9 42.9H42.9C19.2 454.2 0 435 0 411.3V285.7c0-23.7 19.2-42.9 42.9-42.9" />
	<radialGradient id="SVGdJbezbxQ" cx="-647.64" cy="859.487" r="13.211" gradientTransform="matrix(0 11.2 12.75 0 -10852.752 7623.2)" gradientUnits="userSpaceOnUse">
		<stop offset=".576" stop-color="#ffb055" stop-opacity="0" />
		<stop offset=".974" stop-color="#fff2be" />
	</radialGradient>
	<path fill="url(#SVGdJbezbxQ)" fill-opacity=".3" d="M42.9 242.8h125.5c23.7 0 42.9 19.2 42.9 42.9v125.5c0 23.7-19.2 42.9-42.9 42.9H42.9C19.2 454.2 0 435 0 411.3V285.7c0-23.7 19.2-42.9 42.9-42.9" />
	<path fill="#fff" d="M95.4 369.6v39.3H68.2V288.1h42c15 0 26.5 3.3 34.4 9.9s11.9 16.3 11.9 29.2c0 13.3-4.4 23.7-13.3 31.2c-8.8 7.5-20.7 11.2-35.5 11.2zm0-60.6v39.7h11.4c6.7 0 11.9-1.8 15.6-5.3c3.6-3.5 5.5-8.6 5.5-15.2c0-6.1-1.8-10.8-5.4-14.2c-3.5-3.3-8.6-5-15.2-5z" />
</svg>
